<?xml version="1.0" encoding="UTF-8" standalone="no"?>
<!-- Uploaded to: SVG Repo, www.svgrepo.com, Transformed by: SVG Repo Mixer Tools -->

<svg
   width="800"
   height="800"
   viewBox="0 -212 512 512"
   version="1.1"
   preserveAspectRatio="xMidYMid"
   fill="#000000"
   id="svg6"
   xmlns="http://www.w3.org/2000/svg"
   xmlns:svg="http://www.w3.org/2000/svg">
  <defs
     id="defs6" />
  <path
     d="m 185.31481,-22.51146 h 29.47225 c 24.858,35.830898 50.55643,73.653756 76.48941,111.036853 25.85154,-37.290258 50.68674,-74.769451 75.83954,-111.051512 h 29.48691 V 110.92072 H 377.16867 V -3.363862 L 298.60585,110.92072 283.59691,110.89629 205.08948,-3.363862 204.90217,110.92072 H 185.31481 V -22.51146"
     fill="#1fd3ef"
     id="path1"
     style="fill:#3366cc;stroke-width:1.54922" />
  <path
     d="m 435.1438,0.349406 c 0,0 -5.63924,0.06312 -7.85919,0.06312 -1.3309,-15.717599 3.09302,-21.235908 16.04082,-22.305955 14.1266,-0.509546 24.39358,-0.287476 37.18547,-0.0023 9.48973,0.738461 13.76231,4.450543 14.9913,13.907569 0.38863,2.992633 0.42742,6.07805 0.21675,9.091977 -0.61754,8.827318 -4.65589,13.128801 -13.5045,13.9821 -10.58487,1.021374 -21.207,1.6488 -31.80861,2.508184 -2.89756,0.235 -5.8149,0.502702 -8.65696,1.080695 -5.28787,1.07537 -7.25305,2.303605 -7.49261,7.59528 -0.0852,1.886082 0.108,4.51899 0.108,6.846172 h 61.36685 l 0.0639,6.843129 h -68.77505 c 0.0753,-5.249847 -0.41525,-11.121796 0.3544,-16.373925 1.05483,-7.191446 5.84152,-10.693625 12.52038,-11.879271 10.99479,-1.951486 22.18428,-1.876195 33.26957,-2.915821 2.64355,-0.247929 5.28483,-0.562022 7.90785,-0.968138 1.63739,-0.254012 2.65877,-0.04335 4.32887,-1.832845 3.10519,-1.774286 2.67092,-10.330099 1.90128,-15.906968 -0.96053,-4.097664 -4.91978,-5.817953 -8.79766,-5.963972 -11.39481,-0.428932 -22.80104,-0.449466 -34.19435,0.01977 -5.63923,0.232717 -8.56341,3.523473 -9.04482,9.719403 -0.16427,2.109673 -0.12168,6.491771 -0.12168,6.491771"
     fill="#5d5d5d"
     id="path2"
     style="stroke-width:0.723381" />
  <path
     d="m 16.154343,-6.960144 0.06677,-15.948731 c 0,0 78.328281,-0.02769 113.335027,0.0016 23.30254,0.01955 33.74121,10.296965 34.16632,33.66303 0.13354,7.311463 -0.0896,14.593611 -1.02286,21.896929 -1.91704,15.020344 -9.74808,23.196675 -24.89873,25.626773 -9.99402,1.601062 -20.02875,0.9235 -30.04557,0.970734 -24.115286,0.110754 -48.232196,0.03583 -73.402926,0.03583 V 110.92072 H 16.261844 V 43.327548 c 0,0 68.68118,0.420217 98.526416,0.03909 22.81716,-0.289917 32.04568,-2.042454 28.63506,-33.265614 C 142.09263,-2.075519 137.6152,-6.282584 124.77575,-6.554584 103.3479,-7.010635 16.154343,-6.960144 16.154343,-6.960144"
     fill="#1fd3ef"
     id="path3"
     style="fill:#3366cc;stroke-width:1.54922" />
</svg>
